<svg data-v-fde0c5aa="" xmlns="http://www.w3.org/2000/svg" viewBox="0 0 300 300" class="icon"><!----><defs data-v-fde0c5aa=""><!----></defs><rect data-v-fde0c5aa="" fill="#1890ff" x="0" y="0" width="300px" height="300px" class="logo-background-square"></rect><!----><defs data-v-fde0c5aa=""><!----></defs><g data-v-fde0c5aa="" id="7443cd25-2dd8-4b62-8d51-a3364c5779eb" fill="#ffffff" stroke="none" transform="matrix(2.669903110385866,0,0,2.669903110385866,16.504854665578797,16.504844480706712)"><path d="M68.6 36.5c-.4 0-.8-.2-1.1-.4L63 31.5c-.6-.6-.6-1.5 0-2.1.6-.6 1.5-.6 2.1 0l2.9 2.9 5.8-13.9c.3-.8 1.2-1.1 2-.8.8.3 1.1 1.2.8 2l-6.6 16c-.2.5-.6.8-1.1.9h-.3zM50.1 79.6l-10.7-33c3.6-2.9 5.9-7.3 5.9-12.3 0-8.7-7.1-15.8-15.9-15.8s-15.9 7.1-15.9 15.8c0 5 2.3 9.4 5.9 12.3l-10.5 33c0 .1-.1.3-.1.5 0 5.8 9.1 10.4 20.7 10.4s20.7-4.6 20.7-10.4c-.1-.2-.1-.3-.1-.5zM16.6 34.3c0-7 5.8-12.8 12.9-12.8s12.9 5.7 12.9 12.8c0 7-5.8 12.8-12.9 12.8s-12.9-5.8-12.9-12.8zm12.9 53.2c-10.2 0-17.4-3.8-17.6-7.2l10.3-32c2.2 1.1 4.7 1.8 7.3 1.8 2.6 0 5.1-.7 7.3-1.8l10.3 32c-.3 3.4-7.4 7.2-17.6 7.2z"></path><path d="M49.5 49.1c-.5 0-1.1-.3-1.3-.8-.3-.5-.2-1.2.1-1.6l6.1-7.7c-4.1-3.2-6.4-7.6-6.4-12.3 0-9.5 9.7-17.2 21.6-17.2 11.9 0 21.6 7.7 21.6 17.2 0 18.5-39.8 22.2-41.5 22.4h-.2zm20.1-36.6C59.4 12.5 51 18.9 51 26.8c0 4.1 2.3 8 6.4 10.8.3.2.6.6.6 1 .1.4 0 .8-.3 1.2l-4.8 6c3.8-.5 10-1.6 16.2-3.5 8.6-2.6 19-7.5 19-15.5.1-7.9-8.3-14.3-18.5-14.3z"></path></g><!----></svg>